<svg width="155" height="32" viewBox="0 0 155 32" fill="none" xmlns="http://www.w3.org/2000/svg">
<g clip-path="url(#clip0_1_585)">
<path fill-rule="evenodd" clip-rule="evenodd" d="M20.4446 9.34824C19.129 8.4692 17.5822 8 16 8V0C19.1645 0 22.2579 0.938384 24.8891 2.69649C27.5203 4.45458 29.571 6.95345 30.7821 9.87704C31.993 12.8006 32.3099 16.0178 31.6926 19.1214C31.0752 22.2251 29.5514 25.0761 27.3137 27.3137C25.0761 29.5514 22.2251 31.0752 19.1214 31.6926C16.0178 32.3099 12.8006 31.993 9.87704 30.7821C6.95345 29.571 4.45458 27.5203 2.69649 24.8891C0.938384 22.2579 0 19.1645 0 16H8C8 17.5822 8.4692 19.129 9.34824 20.4446C10.2273 21.7602 11.4767 22.7855 12.9386 23.391C14.4003 23.9966 16.0089 24.155 17.5607 23.8462C19.1126 23.5376 20.538 22.7757 21.6569 21.6569C22.7757 20.538 23.5376 19.1126 23.8462 17.5607C24.155 16.0089 23.9966 14.4003 23.391 12.9386C22.7855 11.4767 21.7602 10.2273 20.4446 9.34824Z" fill="#0093EF"/>
<path fill-rule="evenodd" clip-rule="evenodd" d="M8 3.465e-06C8 1.05058 7.79308 2.09087 7.39104 3.06147C6.989 4.03207 6.39972 4.91399 5.65685 5.65686C4.91399 6.39973 4.03208 6.989 3.06147 7.39104C2.09086 7.79308 1.05057 8 3.49688e-07 8L0 16C2.10115 16 4.18172 15.5862 6.12294 14.7821C8.06416 13.978 9.828 12.7994 11.3137 11.3137C12.7994 9.828 13.978 8.06416 14.7821 6.12294C15.5862 4.18172 16 2.10115 16 0L8 3.465e-06Z" fill="#0093EF"/>
</g>
<path d="M154.793 17.22C154.793 17.62 154.767 17.98 154.713 18.3H146.613C146.68 19.1 146.96 19.7267 147.453 20.18C147.947 20.6333 148.553 20.86 149.273 20.86C150.313 20.86 151.053 20.4133 151.493 19.52H154.513C154.193 20.5867 153.58 21.4667 152.673 22.16C151.767 22.84 150.653 23.18 149.333 23.18C148.267 23.18 147.307 22.9467 146.453 22.48C145.613 22 144.953 21.3267 144.473 20.46C144.007 19.5933 143.773 18.5933 143.773 17.46C143.773 16.3133 144.007 15.3067 144.473 14.44C144.94 13.5733 145.593 12.9067 146.433 12.44C147.273 11.9733 148.24 11.74 149.333 11.74C150.387 11.74 151.327 11.9667 152.153 12.42C152.993 12.8733 153.64 13.52 154.093 14.36C154.56 15.1867 154.793 16.14 154.793 17.22ZM151.893 16.42C151.88 15.7 151.62 15.1267 151.113 14.7C150.607 14.26 149.987 14.04 149.253 14.04C148.56 14.04 147.973 14.2533 147.493 14.68C147.027 15.0933 146.74 15.6733 146.633 16.42H151.893Z" fill="#081021"/>
<path d="M139.999 14.22V19.58C139.999 19.9533 140.086 20.2267 140.259 20.4C140.446 20.56 140.753 20.64 141.179 20.64H142.479V23H140.719C138.359 23 137.179 21.8533 137.179 19.56V14.22H135.859V11.92H137.179V9.18H139.999V11.92H142.479V14.22H139.999Z" fill="#081021"/>
<path d="M122.465 17.42C122.465 16.3 122.685 15.3067 123.125 14.44C123.578 13.5733 124.185 12.9067 124.945 12.44C125.718 11.9733 126.578 11.74 127.525 11.74C128.352 11.74 129.072 11.9067 129.685 12.24C130.312 12.5733 130.812 12.9933 131.185 13.5V11.92H134.005V23H131.185V21.38C130.825 21.9 130.325 22.3333 129.685 22.68C129.058 23.0133 128.332 23.18 127.505 23.18C126.572 23.18 125.718 22.94 124.945 22.46C124.185 21.98 123.578 21.3067 123.125 20.44C122.685 19.56 122.465 18.5533 122.465 17.42ZM131.185 17.46C131.185 16.78 131.052 16.2 130.785 15.72C130.518 15.2267 130.158 14.8533 129.705 14.6C129.252 14.3333 128.765 14.2 128.245 14.2C127.725 14.2 127.245 14.3267 126.805 14.58C126.365 14.8333 126.005 15.2067 125.725 15.7C125.458 16.18 125.325 16.7533 125.325 17.42C125.325 18.0867 125.458 18.6733 125.725 19.18C126.005 19.6733 126.365 20.0533 126.805 20.32C127.258 20.5867 127.738 20.72 128.245 20.72C128.765 20.72 129.252 20.5933 129.705 20.34C130.158 20.0733 130.518 19.7 130.785 19.22C131.052 18.7267 131.185 18.14 131.185 17.46Z" fill="#081021"/>
<path d="M108.91 17.42C108.91 16.3 109.13 15.3067 109.57 14.44C110.023 13.5733 110.637 12.9067 111.41 12.44C112.183 11.9733 113.043 11.74 113.99 11.74C114.71 11.74 115.397 11.9 116.05 12.22C116.703 12.5267 117.223 12.94 117.61 13.46V8.2H120.45V23H117.61V21.36C117.263 21.9067 116.777 22.3467 116.15 22.68C115.523 23.0133 114.797 23.18 113.97 23.18C113.037 23.18 112.183 22.94 111.41 22.46C110.637 21.98 110.023 21.3067 109.57 20.44C109.13 19.56 108.91 18.5533 108.91 17.42ZM117.63 17.46C117.63 16.78 117.497 16.2 117.23 15.72C116.963 15.2267 116.603 14.8533 116.15 14.6C115.697 14.3333 115.21 14.2 114.69 14.2C114.17 14.2 113.69 14.3267 113.25 14.58C112.81 14.8333 112.45 15.2067 112.17 15.7C111.903 16.18 111.77 16.7533 111.77 17.42C111.77 18.0867 111.903 18.6733 112.17 19.18C112.45 19.6733 112.81 20.0533 113.25 20.32C113.703 20.5867 114.183 20.72 114.69 20.72C115.21 20.72 115.697 20.5933 116.15 20.34C116.603 20.0733 116.963 19.7 117.23 19.22C117.497 18.7267 117.63 18.14 117.63 17.46Z" fill="#081021"/>
<path d="M105.484 10.6C104.99 10.6 104.577 10.4467 104.244 10.14C103.924 9.82 103.764 9.42667 103.764 8.96C103.764 8.49333 103.924 8.10667 104.244 7.8C104.577 7.48 104.99 7.32 105.484 7.32C105.977 7.32 106.384 7.48 106.704 7.8C107.037 8.10667 107.204 8.49333 107.204 8.96C107.204 9.42667 107.037 9.82 106.704 10.14C106.384 10.4467 105.977 10.6 105.484 10.6ZM106.864 11.92V23H104.064V11.92H106.864Z" fill="#081021"/>
<path d="M89.7891 17.42C89.7891 16.3 90.0091 15.3067 90.4491 14.44C90.9024 13.5733 91.5157 12.9067 92.2891 12.44C93.0624 11.9733 93.9224 11.74 94.8691 11.74C95.5891 11.74 96.2757 11.9 96.9291 12.22C97.5824 12.5267 98.1024 12.94 98.4891 13.46V8.2H101.329V23H98.4891V21.36C98.1424 21.9067 97.6557 22.3467 97.0291 22.68C96.4024 23.0133 95.6757 23.18 94.8491 23.18C93.9157 23.18 93.0624 22.94 92.2891 22.46C91.5157 21.98 90.9024 21.3067 90.4491 20.44C90.0091 19.56 89.7891 18.5533 89.7891 17.42ZM98.5091 17.46C98.5091 16.78 98.3757 16.2 98.1091 15.72C97.8424 15.2267 97.4824 14.8533 97.0291 14.6C96.5757 14.3333 96.0891 14.2 95.5691 14.2C95.0491 14.2 94.5691 14.3267 94.1291 14.58C93.6891 14.8333 93.3291 15.2067 93.0491 15.7C92.7824 16.18 92.6491 16.7533 92.6491 17.42C92.6491 18.0867 92.7824 18.6733 93.0491 19.18C93.3291 19.6733 93.6891 20.0533 94.1291 20.32C94.5824 20.5867 95.0624 20.72 95.5691 20.72C96.0891 20.72 96.5757 20.5933 97.0291 20.34C97.4824 20.0733 97.8424 19.7 98.1091 19.22C98.3757 18.7267 98.5091 18.14 98.5091 17.46Z" fill="#081021"/>
<path d="M83.4266 11.76C84.7466 11.76 85.8133 12.18 86.6266 13.02C87.44 13.8467 87.8466 15.0067 87.8466 16.5V23H85.0466V16.88C85.0466 16 84.8266 15.3267 84.3866 14.86C83.9466 14.38 83.3466 14.14 82.5866 14.14C81.8133 14.14 81.2 14.38 80.7466 14.86C80.3066 15.3267 80.0866 16 80.0866 16.88V23H77.2866V11.92H80.0866V13.3C80.46 12.82 80.9333 12.4467 81.5066 12.18C82.0933 11.9 82.7333 11.76 83.4266 11.76Z" fill="#081021"/>
<path d="M63.0117 17.42C63.0117 16.3 63.2317 15.3067 63.6717 14.44C64.1251 13.5733 64.7317 12.9067 65.4917 12.44C66.2651 11.9733 67.1251 11.74 68.0717 11.74C68.8984 11.74 69.6184 11.9067 70.2317 12.24C70.8584 12.5733 71.3584 12.9933 71.7317 13.5V11.92H74.5517V23H71.7317V21.38C71.3717 21.9 70.8717 22.3333 70.2317 22.68C69.6051 23.0133 68.8784 23.18 68.0517 23.18C67.1184 23.18 66.2651 22.94 65.4917 22.46C64.7317 21.98 64.1251 21.3067 63.6717 20.44C63.2317 19.56 63.0117 18.5533 63.0117 17.42ZM71.7317 17.46C71.7317 16.78 71.5984 16.2 71.3317 15.72C71.0651 15.2267 70.7051 14.8533 70.2517 14.6C69.7984 14.3333 69.3117 14.2 68.7917 14.2C68.2717 14.2 67.7917 14.3267 67.3517 14.58C66.9117 14.8333 66.5517 15.2067 66.2717 15.7C66.0051 16.18 65.8717 16.7533 65.8717 17.42C65.8717 18.0867 66.0051 18.6733 66.2717 19.18C66.5517 19.6733 66.9117 20.0533 67.3517 20.32C67.8051 20.5867 68.2851 20.72 68.7917 20.72C69.3117 20.72 69.7984 20.5933 70.2517 20.34C70.7051 20.0733 71.0651 19.7 71.3317 19.22C71.5984 18.7267 71.7317 18.14 71.7317 17.46Z" fill="#081021"/>
<path d="M47.7002 16C47.7002 14.6267 48.0069 13.4 48.6202 12.32C49.2469 11.2267 50.0935 10.38 51.1602 9.78C52.2402 9.16667 53.4469 8.86 54.7802 8.86C56.3402 8.86 57.7069 9.26 58.8802 10.06C60.0535 10.86 60.8735 11.9667 61.3402 13.38H58.1202C57.8002 12.7133 57.3469 12.2133 56.7602 11.88C56.1869 11.5467 55.5202 11.38 54.7602 11.38C53.9469 11.38 53.2202 11.5733 52.5802 11.96C51.9535 12.3333 51.4602 12.8667 51.1002 13.56C50.7535 14.2533 50.5802 15.0667 50.5802 16C50.5802 16.92 50.7535 17.7333 51.1002 18.44C51.4602 19.1333 51.9535 19.6733 52.5802 20.06C53.2202 20.4333 53.9469 20.62 54.7602 20.62C55.5202 20.62 56.1869 20.4533 56.7602 20.12C57.3469 19.7733 57.8002 19.2667 58.1202 18.6H61.3402C60.8735 20.0267 60.0535 21.14 58.8802 21.94C57.7202 22.7267 56.3535 23.12 54.7802 23.12C53.4469 23.12 52.2402 22.82 51.1602 22.22C50.0935 21.6067 49.2469 20.76 48.6202 19.68C48.0069 18.6 47.7002 17.3733 47.7002 16Z" fill="#081021"/>
<defs>
<clipPath id="clip0_1_585">
<rect width="32" height="32" fill="white"/>
</clipPath>
</defs>
</svg>
